<svg width="24" height="15" viewBox="0 0 24 15" fill="none" xmlns="http://www.w3.org/2000/svg">
<path fill-rule="evenodd" clip-rule="evenodd" d="M0.495406 6.48416C3.50701 2.48475 7.58833 0.0224609 12.0889 0.0224609C16.5894 0.0224609 20.6707 2.48475 23.6823 6.48898C23.9281 6.81664 23.9281 7.2744 23.6823 7.60206C20.6707 11.6015 16.5894 14.0638 12.0889 14.0638C7.58833 14.0638 3.50701 11.6015 0.495406 7.59725C0.249659 7.26958 0.249659 6.81182 0.495406 6.48416ZM12.2529 10.7689C14.2313 10.7689 15.8351 9.16506 15.8351 7.18667C15.8351 5.20829 14.2313 3.60449 12.2529 3.60449C10.2745 3.60449 8.67072 5.20829 8.67072 7.18667C8.67072 9.16506 10.2745 10.7689 12.2529 10.7689Z" fill="white"/>
</svg>
