<svg width="22" height="24" viewBox="0 0 22 24" fill="none" xmlns="http://www.w3.org/2000/svg">
<path d="M20.9119 3.29672C20.8693 2.99301 20.649 2.74319 20.3512 2.66108L10.808 0.0281745C10.6719 -0.00939149 10.5282 -0.00939149 10.392 0.0281745L0.848752 2.66108C0.55099 2.74319 0.330721 2.99291 0.288095 3.29672C0.232743 3.69157 -1.03001 13.0211 2.20886 17.6622C5.44389 22.2978 10.2163 23.4858 10.4178 23.5341C10.4777 23.5485 10.5388 23.5556 10.6 23.5556C10.6612 23.5556 10.7223 23.5484 10.7822 23.5341C10.9838 23.4858 15.7562 22.2978 18.9911 17.6622C22.23 13.0212 20.9673 3.69168 20.9119 3.29672ZM16.7542 8.74338L10.2447 15.2011C10.0932 15.3514 9.8946 15.4266 9.69606 15.4266C9.49751 15.4266 9.29887 15.3515 9.1474 15.2011L5.12264 11.2084C4.97707 11.064 4.89534 10.8682 4.89534 10.6641C4.89534 10.4599 4.97718 10.2641 5.12264 10.1198L5.92178 9.32698C6.22482 9.02645 6.71616 9.02635 7.01909 9.32698L9.69606 11.9827L14.8578 6.8619C15.0032 6.71748 15.2006 6.6364 15.4064 6.6364C15.6122 6.6364 15.8096 6.71748 15.9551 6.8619L16.7542 7.65468C17.0572 7.95531 17.0572 8.44275 16.7542 8.74338Z" fill="white"/>
</svg>
